# xmcd
#
# Track frame offsets:
# 150
# 13451
# 24134
# 39693
# 52474
# 64167
# 75074
# 87615
# 104482
# 115506
# 125746
# 138578
#
# Disc length: 2119 seconds
#
#
# Revision: 0
# Processed by: cddbd v1.5.2PL0 Copyright (c) Steve Scherf et al.
# Submitted via: FreeRIP 2.944 
#
DISCID=a608450c
DTITLE=Dailey and Vincent - Brothers from Different Mothers
DYEAR=2009
DGENRE=Bluegrass
TTITLE0=Head Hung Down
TTITLE1=You Oughta Be Here With Me
TTITLE2=Your Love Is Like A Flower
TTITLE3=When I've Traveled My Last Mile
TTITLE4=Years Ago
TTITLE5=There Is You
TTITLE6=Girl In The Valley
TTITLE7=Please Don't Let Our Sweet Love Die
TTITLE8=Oh Ye Must Be Born Again
TTITLE9=Winter"s Come and Gone
TTITLE10=When I Reach That Home Up There
TTITLE11=On The Other Side
EXTD=order from www.DaileyVincent.com
EXTT0=
EXTT1=
EXTT2=
EXTT3=
EXTT4=
EXTT5=
EXTT6=
EXTT7=
EXTT8=
EXTT9=
EXTT10=
EXTT11=
PLAYORDER=
